<svg width="18" height="20" viewBox="0 0 18 20" fill="none" xmlns="http://www.w3.org/2000/svg">
<path d="M17.2547 9.98202C17.2547 9.71236 17.1903 9.45932 17.0826 9.22933C16.3637 6.91017 12.998 7.07958 8.21067 6.96646C7.41027 6.9477 7.8681 6.00256 8.14902 3.92785C8.33183 2.57849 7.46174 0.50647 5.99926 0.50647C3.58789 0.50647 5.90759 2.40855 3.77552 7.11228C2.63631 9.62551 0.0898438 8.21772 0.0898438 10.7422V16.4887C0.0898438 17.4713 0.186342 18.4159 1.5684 18.5714C2.90812 18.722 2.60683 19.6768 4.53946 19.6768H14.2128C15.1982 19.6768 15.9997 18.8748 15.9997 17.8895C15.9997 17.481 15.8565 17.1089 15.6255 16.8076C16.1723 16.5015 16.5475 15.9236 16.5475 15.2535C16.5475 14.846 16.4049 14.474 16.1744 14.1732C16.7228 13.8677 17.0992 13.2892 17.0992 12.618C17.0992 12.1307 16.9019 11.689 16.584 11.3657C16.9898 11.0381 17.2547 10.5428 17.2547 9.98202V9.98202Z" fill="#FFDB5E"/>
<path d="M10.8558 11.7688H15.4684C16.0957 11.7688 16.6843 11.4332 17.0049 10.8933C17.1368 10.6708 17.0633 10.3829 16.8403 10.2505C16.6178 10.1181 16.33 10.1926 16.1975 10.4151C16.0458 10.6719 15.7654 10.8306 15.4679 10.8306H10.7449C10.2769 10.8306 9.89623 10.45 9.89623 9.98195C9.89623 9.51393 10.2769 9.1333 10.7449 9.1333H13.9009C14.1598 9.1333 14.37 8.92315 14.37 8.66422C14.37 8.40528 14.1598 8.19513 13.9009 8.19513H10.7443C9.75899 8.19513 8.95752 8.9966 8.95752 9.98195C8.95752 10.5314 9.21217 11.0177 9.60352 11.3458C9.27382 11.6701 9.06849 12.1204 9.06849 12.6179C9.06849 13.1691 9.32475 13.6569 9.71824 13.9845C9.39069 14.3083 9.18751 14.757 9.18751 15.2534C9.18751 15.8538 9.48718 16.3835 9.94287 16.7078C9.66195 17.0236 9.48611 17.4348 9.48611 17.8894C9.48611 18.8748 10.2876 19.6762 11.2729 19.6762H14.2129C14.8401 19.6762 15.4293 19.3412 15.7499 18.8013C15.8823 18.5788 15.8089 18.2909 15.5864 18.1585C15.3634 18.0272 15.0755 18.0996 14.9436 18.322C14.7908 18.5788 14.5104 18.7381 14.2129 18.7381H11.2729C10.8049 18.7381 10.4243 18.3574 10.4243 17.8894C10.4243 17.4214 10.8049 17.0408 11.2729 17.0408H14.7608C15.388 17.0408 15.9777 16.7052 16.2978 16.1653C16.4302 15.9423 16.3568 15.6544 16.1343 15.5225C15.9097 15.388 15.6228 15.4636 15.4915 15.686C15.3366 15.9471 15.0632 16.1026 14.7608 16.1026H10.9743C10.5063 16.1026 10.1257 15.7214 10.1257 15.2534C10.1257 14.7854 10.5063 14.4048 10.9743 14.4048H15.3119C15.9391 14.4048 16.5283 14.0697 16.8489 13.5298C16.9813 13.3074 16.9079 13.0195 16.6854 12.8871C16.4618 12.7552 16.1745 12.8281 16.0426 13.0506C15.8877 13.3111 15.6143 13.4666 15.3119 13.4666H10.8558C10.3878 13.4666 10.0072 13.086 10.0072 12.6179C10.0072 12.1499 10.3873 11.7688 10.8558 11.7688V11.7688Z" fill="#EE9547"/>
</svg>
